<svg xmlns="http://www.w3.org/2000/svg" xmlns:xlink="http://www.w3.org/1999/xlink" version="1.1" data-diagram-type="ACTIVITY" style="width:620px;height:1319px;background:#FFFFFF;" width="620px" height="1319px" viewBox="0 0 620 1319" zoomAndPan="magnify" preserveAspectRatio="none" contentStyleType="text/css"><?plantuml 1.2026.7?><defs/><g font-family="sans-serif" lengthAdjust="spacing"><g class="title" data-source-line="1"><text x="121.661" y="34.533" fill="#000" font-size="14" textLength="374.965" font-weight="700">Workplace Migration Scheduling and Execution Process</text></g><ellipse cx="355.241" cy="63.609" rx="10" ry="10" fill="#222" style="stroke:#222;stroke-width:1;"/><rect x="239.849" y="93.609" width="230.785" height="35.094" fill="#F1F1F1" style="stroke:#181818;stroke-width:0.5;" rx="12.5" ry="12.5"/><text x="249.849" y="116.066" fill="#000" font-size="12" textLength="210.785">Workplace added to migration schedule</text><rect x="287.544" y="148.703" width="135.395" height="35.094" fill="#F1F1F1" style="stroke:#181818;stroke-width:0.5;" rx="12.5" ry="12.5"/><text x="297.544" y="171.16" fill="#000" font-size="12" textLength="115.395">Assign migration date</text><rect x="244.519" y="203.797" width="221.445" height="35.094" fill="#F1F1F1" style="stroke:#181818;stroke-width:0.5;" rx="12.5" ry="12.5"/><text x="254.519" y="226.254" fill="#000" font-size="12" textLength="201.445">Notify user about scheduled migration</text><polygon points="274.525,258.891,435.958,258.891,447.958,270.891,435.958,282.891,274.525,282.891,262.525,270.891,274.525,258.891" fill="#F1F1F1" style="stroke:#181818;stroke-width:0.5;stroke-linejoin:miter;stroke-miterlimit:10;"/><text x="274.525" y="275.392" fill="#000" font-size="11" textLength="161.434">Postponement request received?</text><text x="243.57" y="268.474" fill="#000" font-size="11" textLength="18.955">Yes</text><text x="447.958" y="268.474" fill="#000" font-size="11" textLength="14.062">No</text><rect x="116.219" y="292.891" width="173.398" height="35.094" fill="#F1F1F1" style="stroke:#181818;stroke-width:0.5;" rx="12.5" ry="12.5"/><text x="126.219" y="315.348" fill="#000" font-size="12" textLength="153.398">Create Service Desk request</text><rect x="113.539" y="347.984" width="178.76" height="35.094" fill="#F1F1F1" style="stroke:#181818;stroke-width:0.5;" rx="12.5" ry="12.5"/><text x="123.539" y="370.441" fill="#000" font-size="12" textLength="158.76">Review postponement reason</text><polygon points="139.929,403.078,265.908,403.078,277.908,415.078,265.908,427.078,139.929,427.078,127.929,415.078,139.929,403.078" fill="#F1F1F1" style="stroke:#181818;stroke-width:0.5;stroke-linejoin:miter;stroke-miterlimit:10;"/><text x="139.929" y="419.579" fill="#000" font-size="11" textLength="125.979">Postponement approved?</text><text x="108.974" y="412.661" fill="#000" font-size="11" textLength="18.955">Yes</text><text x="277.908" y="412.661" fill="#000" font-size="11" textLength="14.062">No</text><rect x="16" y="437.078" width="179.416" height="35.094" fill="#F1F1F1" style="stroke:#181818;stroke-width:0.5;" rx="12.5" ry="12.5"/><text x="26" y="459.535" fill="#000" font-size="12" textLength="159.416">Mark workplace as postponed</text><rect x="25.337" y="492.172" width="160.742" height="35.094" fill="#F1F1F1" style="stroke:#181818;stroke-width:0.5;" rx="12.5" ry="12.5"/><text x="35.337" y="514.629" fill="#000" font-size="12" textLength="140.742">Assign new migration date</text><rect x="24.332" y="547.266" width="162.752" height="35.094" fill="#F1F1F1" style="stroke:#181818;stroke-width:0.5;" rx="12.5" ry="12.5"/><text x="34.332" y="569.723" fill="#000" font-size="12" textLength="142.752">Notify user about new date</text><rect x="215.416" y="437.078" width="169.426" height="35.094" fill="#F1F1F1" style="stroke:#181818;stroke-width:0.5;" rx="12.5" ry="12.5"/><text x="225.416" y="459.535" fill="#000" font-size="12" textLength="149.426">Keep original migration date</text><polygon points="202.918,588.359,214.918,600.359,202.918,612.359,190.918,600.359,202.918,588.359" fill="#F1F1F1" style="stroke:#181818;stroke-width:0.5;stroke-linejoin:miter;stroke-miterlimit:10;"/><rect x="414.842" y="292.891" width="185.445" height="35.094" fill="#F1F1F1" style="stroke:#181818;stroke-width:0.5;" rx="12.5" ry="12.5"/><text x="424.842" y="315.348" fill="#000" font-size="12" textLength="165.445">Keep scheduled migration date</text><polygon points="355.241,618.359,367.241,630.359,355.241,642.359,343.241,630.359,355.241,618.359" fill="#F1F1F1" style="stroke:#181818;stroke-width:0.5;stroke-linejoin:miter;stroke-miterlimit:10;"/><rect x="284.884" y="662.359" width="140.715" height="35.094" fill="#F1F1F1" style="stroke:#181818;stroke-width:0.5;" rx="12.5" ry="12.5"/><text x="294.884" y="684.816" fill="#000" font-size="12" textLength="120.715">Wait for migration date</text><rect x="276.206" y="717.453" width="158.07" height="35.094" fill="#F1F1F1" style="stroke:#181818;stroke-width:0.5;" rx="12.5" ry="12.5"/><text x="286.206" y="739.91" fill="#000" font-size="12" textLength="138.07">Start automated migration</text><polygon points="274.229,772.547,436.254,772.547,448.254,784.547,436.254,796.547,274.229,796.547,262.229,784.547,274.229,772.547" fill="#F1F1F1" style="stroke:#181818;stroke-width:0.5;stroke-linejoin:miter;stroke-miterlimit:10;"/><text x="274.229" y="789.048" fill="#000" font-size="11" textLength="162.024">Automated migration successful?</text><text x="243.275" y="782.13" fill="#000" font-size="11" textLength="18.955">Yes</text><text x="448.254" y="782.13" fill="#000" font-size="11" textLength="14.062">No</text><rect x="156.51" y="806.547" width="170.053" height="35.094" fill="#F1F1F1" style="stroke:#181818;stroke-width:0.5;" rx="12.5" ry="12.5"/><text x="166.51" y="829.004" fill="#000" font-size="12" textLength="150.053">Mark workplace as migrated</text><rect x="369.239" y="806.547" width="199.414" height="35.094" fill="#F1F1F1" style="stroke:#181818;stroke-width:0.5;" rx="12.5" ry="12.5"/><text x="379.239" y="829.004" fill="#000" font-size="12" textLength="179.414">Register technical migration issue</text><rect x="346.563" y="861.641" width="244.766" height="35.094" fill="#F1F1F1" style="stroke:#181818;stroke-width:0.5;" rx="12.5" ry="12.5"/><text x="356.563" y="884.098" fill="#000" font-size="12" textLength="224.766">Workplace Support takes over workstation</text><rect x="389.92" y="916.734" width="158.053" height="35.094" fill="#F1F1F1" style="stroke:#181818;stroke-width:0.5;" rx="12.5" ry="12.5"/><text x="399.92" y="939.191" fill="#000" font-size="12" textLength="138.053">Perform manual migration</text><rect x="410.597" y="971.828" width="116.697" height="35.094" fill="#F1F1F1" style="stroke:#181818;stroke-width:0.5;" rx="12.5" ry="12.5"/><text x="420.597" y="994.285" fill="#000" font-size="12" textLength="96.697">Remove Windows</text><rect x="411.591" y="1026.922" width="114.711" height="35.094" fill="#F1F1F1" style="stroke:#181818;stroke-width:0.5;" rx="12.5" ry="12.5"/><text x="421.591" y="1049.379" fill="#000" font-size="12" textLength="94.711">Install Astra Linux</text><rect x="350.893" y="1082.016" width="236.105" height="35.094" fill="#F1F1F1" style="stroke:#181818;stroke-width:0.5;" rx="12.5" ry="12.5"/><text x="360.893" y="1104.473" fill="#000" font-size="12" textLength="216.105">Restore required workplace environment</text><rect x="350.893" y="1137.109" width="236.105" height="35.094" fill="#F1F1F1" style="stroke:#181818;stroke-width:0.5;" rx="12.5" ry="12.5"/><text x="360.893" y="1159.566" fill="#000" font-size="12" textLength="216.105">Restore required workplace environment</text><rect x="383.92" y="1192.203" width="170.053" height="35.094" fill="#F1F1F1" style="stroke:#181818;stroke-width:0.5;" rx="12.5" ry="12.5"/><text x="393.92" y="1214.66" fill="#000" font-size="12" textLength="150.053">Mark workplace as migrated</text><polygon points="355.241,1233.297,367.241,1245.297,355.241,1257.297,343.241,1245.297,355.241,1233.297" fill="#F1F1F1" style="stroke:#181818;stroke-width:0.5;stroke-linejoin:miter;stroke-miterlimit:10;"/><ellipse cx="355.241" cy="1288.297" rx="11" ry="11" fill="none" style="stroke:#222;stroke-width:1;"/><ellipse cx="355.241" cy="1288.297" rx="6" ry="6" fill="#222" style="stroke:#222;stroke-width:1;"/><line x1="355.241" y1="73.609" x2="355.241" y2="93.609" style="stroke:#181818;stroke-width:1;"/><polygon points="351.241,83.609,355.241,93.609,359.241,83.609,355.241,87.609" fill="#181818" style="stroke:#181818;stroke-width:1;stroke-linejoin:miter;stroke-miterlimit:10;"/><line x1="355.241" y1="128.703" x2="355.241" y2="148.703" style="stroke:#181818;stroke-width:1;"/><polygon points="351.241,138.703,355.241,148.703,359.241,138.703,355.241,142.703" fill="#181818" style="stroke:#181818;stroke-width:1;stroke-linejoin:miter;stroke-miterlimit:10;"/><line x1="355.241" y1="183.797" x2="355.241" y2="203.797" style="stroke:#181818;stroke-width:1;"/><polygon points="351.241,193.797,355.241,203.797,359.241,193.797,355.241,197.797" fill="#181818" style="stroke:#181818;stroke-width:1;stroke-linejoin:miter;stroke-miterlimit:10;"/><line x1="202.918" y1="327.984" x2="202.918" y2="347.984" style="stroke:#181818;stroke-width:1;"/><polygon points="198.918,337.984,202.918,347.984,206.918,337.984,202.918,341.984" fill="#181818" style="stroke:#181818;stroke-width:1;stroke-linejoin:miter;stroke-miterlimit:10;"/><line x1="105.708" y1="472.172" x2="105.708" y2="492.172" style="stroke:#181818;stroke-width:1;"/><polygon points="101.708,482.172,105.708,492.172,109.708,482.172,105.708,486.172" fill="#181818" style="stroke:#181818;stroke-width:1;stroke-linejoin:miter;stroke-miterlimit:10;"/><line x1="105.708" y1="527.266" x2="105.708" y2="547.266" style="stroke:#181818;stroke-width:1;"/><polygon points="101.708,537.266,105.708,547.266,109.708,537.266,105.708,541.266" fill="#181818" style="stroke:#181818;stroke-width:1;stroke-linejoin:miter;stroke-miterlimit:10;"/><line x1="127.929" y1="415.078" x2="105.708" y2="415.078" style="stroke:#181818;stroke-width:1;"/><line x1="105.708" y1="415.078" x2="105.708" y2="437.078" style="stroke:#181818;stroke-width:1;"/><polygon points="101.708,427.078,105.708,437.078,109.708,427.078,105.708,431.078" fill="#181818" style="stroke:#181818;stroke-width:1;stroke-linejoin:miter;stroke-miterlimit:10;"/><line x1="277.908" y1="415.078" x2="300.129" y2="415.078" style="stroke:#181818;stroke-width:1;"/><line x1="300.129" y1="415.078" x2="300.129" y2="437.078" style="stroke:#181818;stroke-width:1;"/><polygon points="296.129,427.078,300.129,437.078,304.129,427.078,300.129,431.078" fill="#181818" style="stroke:#181818;stroke-width:1;stroke-linejoin:miter;stroke-miterlimit:10;"/><line x1="105.708" y1="582.359" x2="105.708" y2="600.359" style="stroke:#181818;stroke-width:1;"/><line x1="105.708" y1="600.359" x2="190.918" y2="600.359" style="stroke:#181818;stroke-width:1;"/><polygon points="180.918,596.359,190.918,600.359,180.918,604.359,184.918,600.359" fill="#181818" style="stroke:#181818;stroke-width:1;stroke-linejoin:miter;stroke-miterlimit:10;"/><line x1="300.129" y1="472.172" x2="300.129" y2="600.359" style="stroke:#181818;stroke-width:1;"/><line x1="300.129" y1="600.359" x2="214.918" y2="600.359" style="stroke:#181818;stroke-width:1;"/><polygon points="224.918,596.359,214.918,600.359,224.918,604.359,220.918,600.359" fill="#181818" style="stroke:#181818;stroke-width:1;stroke-linejoin:miter;stroke-miterlimit:10;"/><line x1="202.918" y1="383.078" x2="202.918" y2="403.078" style="stroke:#181818;stroke-width:1;"/><polygon points="198.918,393.078,202.918,403.078,206.918,393.078,202.918,397.078" fill="#181818" style="stroke:#181818;stroke-width:1;stroke-linejoin:miter;stroke-miterlimit:10;"/><line x1="262.525" y1="270.891" x2="202.918" y2="270.891" style="stroke:#181818;stroke-width:1;"/><line x1="202.918" y1="270.891" x2="202.918" y2="292.891" style="stroke:#181818;stroke-width:1;"/><polygon points="198.918,282.891,202.918,292.891,206.918,282.891,202.918,286.891" fill="#181818" style="stroke:#181818;stroke-width:1;stroke-linejoin:miter;stroke-miterlimit:10;"/><line x1="447.958" y1="270.891" x2="507.564" y2="270.891" style="stroke:#181818;stroke-width:1;"/><line x1="507.564" y1="270.891" x2="507.564" y2="292.891" style="stroke:#181818;stroke-width:1;"/><polygon points="503.564,282.891,507.564,292.891,511.564,282.891,507.564,286.891" fill="#181818" style="stroke:#181818;stroke-width:1;stroke-linejoin:miter;stroke-miterlimit:10;"/><line x1="202.918" y1="612.359" x2="202.918" y2="630.359" style="stroke:#181818;stroke-width:1;"/><line x1="202.918" y1="630.359" x2="343.241" y2="630.359" style="stroke:#181818;stroke-width:1;"/><polygon points="333.241,626.359,343.241,630.359,333.241,634.359,337.241,630.359" fill="#181818" style="stroke:#181818;stroke-width:1;stroke-linejoin:miter;stroke-miterlimit:10;"/><line x1="507.564" y1="327.984" x2="507.564" y2="630.359" style="stroke:#181818;stroke-width:1;"/><line x1="507.564" y1="630.359" x2="367.241" y2="630.359" style="stroke:#181818;stroke-width:1;"/><polygon points="377.241,626.359,367.241,630.359,377.241,634.359,373.241,630.359" fill="#181818" style="stroke:#181818;stroke-width:1;stroke-linejoin:miter;stroke-miterlimit:10;"/><line x1="355.241" y1="238.891" x2="355.241" y2="258.891" style="stroke:#181818;stroke-width:1;"/><polygon points="351.241,248.891,355.241,258.891,359.241,248.891,355.241,252.891" fill="#181818" style="stroke:#181818;stroke-width:1;stroke-linejoin:miter;stroke-miterlimit:10;"/><line x1="355.241" y1="642.359" x2="355.241" y2="662.359" style="stroke:#181818;stroke-width:1;"/><polygon points="351.241,652.359,355.241,662.359,359.241,652.359,355.241,656.359" fill="#181818" style="stroke:#181818;stroke-width:1;stroke-linejoin:miter;stroke-miterlimit:10;"/><line x1="355.241" y1="697.453" x2="355.241" y2="717.453" style="stroke:#181818;stroke-width:1;"/><polygon points="351.241,707.453,355.241,717.453,359.241,707.453,355.241,711.453" fill="#181818" style="stroke:#181818;stroke-width:1;stroke-linejoin:miter;stroke-miterlimit:10;"/><line x1="468.946" y1="841.641" x2="468.946" y2="861.641" style="stroke:#181818;stroke-width:1;"/><polygon points="464.946,851.641,468.946,861.641,472.946,851.641,468.946,855.641" fill="#181818" style="stroke:#181818;stroke-width:1;stroke-linejoin:miter;stroke-miterlimit:10;"/><line x1="468.946" y1="896.734" x2="468.946" y2="916.734" style="stroke:#181818;stroke-width:1;"/><polygon points="464.946,906.734,468.946,916.734,472.946,906.734,468.946,910.734" fill="#181818" style="stroke:#181818;stroke-width:1;stroke-linejoin:miter;stroke-miterlimit:10;"/><line x1="468.946" y1="951.828" x2="468.946" y2="971.828" style="stroke:#181818;stroke-width:1;"/><polygon points="464.946,961.828,468.946,971.828,472.946,961.828,468.946,965.828" fill="#181818" style="stroke:#181818;stroke-width:1;stroke-linejoin:miter;stroke-miterlimit:10;"/><line x1="468.946" y1="1006.922" x2="468.946" y2="1026.922" style="stroke:#181818;stroke-width:1;"/><polygon points="464.946,1016.922,468.946,1026.922,472.946,1016.922,468.946,1020.922" fill="#181818" style="stroke:#181818;stroke-width:1;stroke-linejoin:miter;stroke-miterlimit:10;"/><line x1="468.946" y1="1062.016" x2="468.946" y2="1082.016" style="stroke:#181818;stroke-width:1;"/><polygon points="464.946,1072.016,468.946,1082.016,472.946,1072.016,468.946,1076.016" fill="#181818" style="stroke:#181818;stroke-width:1;stroke-linejoin:miter;stroke-miterlimit:10;"/><line x1="468.946" y1="1117.109" x2="468.946" y2="1137.109" style="stroke:#181818;stroke-width:1;"/><polygon points="464.946,1127.109,468.946,1137.109,472.946,1127.109,468.946,1131.109" fill="#181818" style="stroke:#181818;stroke-width:1;stroke-linejoin:miter;stroke-miterlimit:10;"/><line x1="468.946" y1="1172.203" x2="468.946" y2="1192.203" style="stroke:#181818;stroke-width:1;"/><polygon points="464.946,1182.203,468.946,1192.203,472.946,1182.203,468.946,1186.203" fill="#181818" style="stroke:#181818;stroke-width:1;stroke-linejoin:miter;stroke-miterlimit:10;"/><line x1="262.229" y1="784.547" x2="241.537" y2="784.547" style="stroke:#181818;stroke-width:1;"/><line x1="241.537" y1="784.547" x2="241.537" y2="806.547" style="stroke:#181818;stroke-width:1;"/><polygon points="237.537,796.547,241.537,806.547,245.537,796.547,241.537,800.547" fill="#181818" style="stroke:#181818;stroke-width:1;stroke-linejoin:miter;stroke-miterlimit:10;"/><line x1="448.254" y1="784.547" x2="468.946" y2="784.547" style="stroke:#181818;stroke-width:1;"/><line x1="468.946" y1="784.547" x2="468.946" y2="806.547" style="stroke:#181818;stroke-width:1;"/><polygon points="464.946,796.547,468.946,806.547,472.946,796.547,468.946,800.547" fill="#181818" style="stroke:#181818;stroke-width:1;stroke-linejoin:miter;stroke-miterlimit:10;"/><line x1="241.537" y1="841.641" x2="241.537" y2="1245.297" style="stroke:#181818;stroke-width:1;"/><line x1="241.537" y1="1245.297" x2="343.241" y2="1245.297" style="stroke:#181818;stroke-width:1;"/><polygon points="333.241,1241.297,343.241,1245.297,333.241,1249.297,337.241,1245.297" fill="#181818" style="stroke:#181818;stroke-width:1;stroke-linejoin:miter;stroke-miterlimit:10;"/><line x1="468.946" y1="1227.297" x2="468.946" y2="1245.297" style="stroke:#181818;stroke-width:1;"/><line x1="468.946" y1="1245.297" x2="367.241" y2="1245.297" style="stroke:#181818;stroke-width:1;"/><polygon points="377.241,1241.297,367.241,1245.297,377.241,1249.297,373.241,1245.297" fill="#181818" style="stroke:#181818;stroke-width:1;stroke-linejoin:miter;stroke-miterlimit:10;"/><line x1="355.241" y1="752.547" x2="355.241" y2="772.547" style="stroke:#181818;stroke-width:1;"/><polygon points="351.241,762.547,355.241,772.547,359.241,762.547,355.241,766.547" fill="#181818" style="stroke:#181818;stroke-width:1;stroke-linejoin:miter;stroke-miterlimit:10;"/><line x1="355.241" y1="1257.297" x2="355.241" y2="1277.297" style="stroke:#181818;stroke-width:1;"/><polygon points="351.241,1267.297,355.241,1277.297,359.241,1267.297,355.241,1271.297" fill="#181818" style="stroke:#181818;stroke-width:1;stroke-linejoin:miter;stroke-miterlimit:10;"/><?plantuml-src dLBDRjim3BxhANXCNy4v3C7QGx6s29P3iADcqGuHMz98AcdVVl9FRMSEUfWk0gJlX_n89MqGZe7FiR4bmYlLR9M2XqDvGfSQyZLOx-3f7SlKV-mvb2XYZAXbDQQOsTOvTA01sab61XdScc8dGhLV_3chtVjRKAe-80aosDyXwKHoCtXh35MmsGVH63osw1KO_oIKxYwHBkY-FO2UqCFc5yg3CP1FyPqnky01-KAvmaUKyoTlEo1-ueNm2l5MsKhlsI5MlZP63Yi_64_nQlaCrpaKcRJTTaQDQVXi_MyY4sQTJ0UVGTW8mkOjBCn_84O8J3LvsznLHk-eCkQME_3kv3uIHr9njAHG1LvFyT1j0zYaeSqFwydjrZyWgUnMgKhDlT6jSnoONOoByZ-dM9DepacnF7agRvedaJHslzZMGuenv9hLdb4W3vHxjxpMGzazV8-SsssXjJujDQVbQJCHZkHTkChu-EopHjF0JfGjl91FxnDSD33s6qYSivZRGtyX3hvRiFy1VntMCBqi5_y2?></g></svg>