<svg xmlns="http://www.w3.org/2000/svg" xmlns:xlink="http://www.w3.org/1999/xlink" version="1.1" data-diagram-type="STATE" style="width:1914px;height:928px;background:#FFFFFF;" width="1914px" height="928px" viewBox="0 0 1914 928" zoomAndPan="magnify" preserveAspectRatio="none" contentStyleType="text/css"><?plantuml 1.2026.7?><defs/><g font-family="sans-serif" lengthAdjust="spacing"><g class="title" data-source-line="1"><text x="835.924" y="24.533" fill="#000" font-size="14" textLength="235.71" font-weight="700">Workplace Migration State Machine</text></g><g class="entity" data-qualified-name="Scheduled" id="ent0001" data-source-line="33"><rect x="1332" y="125.609" width="86.165" height="50" fill="#F1F1F1" style="stroke:#181818;stroke-width:0.5;" rx="12.5" ry="12.5"/><line x1="1332" y1="153.219" x2="1418.165" y2="153.219" style="stroke:#181818;stroke-width:0.5;"/><text x="1342" y="145.143" fill="#000" font-size="14" textLength="66.165">Scheduled</text></g><g class="entity" data-qualified-name="Ready" id="ent0002" data-source-line="34"><rect x="931" y="253.609" width="60.469" height="50" fill="#F1F1F1" style="stroke:#181818;stroke-width:0.5;" rx="12.5" ry="12.5"/><line x1="931" y1="281.219" x2="991.469" y2="281.219" style="stroke:#181818;stroke-width:0.5;"/><text x="941" y="273.143" fill="#000" font-size="14" textLength="40.469">Ready</text></g><g class="entity" data-qualified-name="Postponed" id="ent0003" data-source-line="35"><rect x="1140.5" y="381.609" width="86.944" height="50" fill="#F1F1F1" style="stroke:#181818;stroke-width:0.5;" rx="12.5" ry="12.5"/><line x1="1140.5" y1="409.219" x2="1227.444" y2="409.219" style="stroke:#181818;stroke-width:0.5;"/><text x="1150.5" y="401.143" fill="#000" font-size="14" textLength="66.944">Postponed</text></g><g class="entity" data-qualified-name="Blocked" id="ent0004" data-source-line="36"><rect x="982" y="653.609" width="69.807" height="50" fill="#F1F1F1" style="stroke:#181818;stroke-width:0.5;" rx="12.5" ry="12.5"/><line x1="982" y1="681.219" x2="1051.807" y2="681.219" style="stroke:#181818;stroke-width:0.5;"/><text x="992" y="673.143" fill="#000" font-size="14" textLength="49.807">Blocked</text></g><g class="entity" data-qualified-name="MigrationInProgress" id="ent0005" data-source-line="37"><rect x="342.5" y="381.609" width="145.275" height="50" fill="#F1F1F1" style="stroke:#181818;stroke-width:0.5;" rx="12.5" ry="12.5"/><line x1="342.5" y1="409.219" x2="487.775" y2="409.219" style="stroke:#181818;stroke-width:0.5;"/><text x="352.5" y="401.143" fill="#000" font-size="14" textLength="125.275">MigrationInProgress</text></g><g class="entity" data-qualified-name="ManualMigrationRequired" id="ent0006" data-source-line="38"><rect x="456" y="525.609" width="180.31" height="50" fill="#F1F1F1" style="stroke:#181818;stroke-width:0.5;" rx="12.5" ry="12.5"/><line x1="456" y1="553.219" x2="636.31" y2="553.219" style="stroke:#181818;stroke-width:0.5;"/><text x="466" y="545.143" fill="#000" font-size="14" textLength="160.31">ManualMigrationRequired</text></g><g class="entity" data-qualified-name="DualBoot" id="ent0007" data-source-line="39"><rect x="244" y="525.609" width="77.593" height="50" fill="#F1F1F1" style="stroke:#181818;stroke-width:0.5;" rx="12.5" ry="12.5"/><line x1="244" y1="553.219" x2="321.593" y2="553.219" style="stroke:#181818;stroke-width:0.5;"/><text x="254" y="545.143" fill="#000" font-size="14" textLength="57.593">DualBoot</text></g><g class="entity" data-qualified-name="Migrated" id="ent0008" data-source-line="40"><rect x="31" y="653.609" width="74.469" height="50" fill="#F1F1F1" style="stroke:#181818;stroke-width:0.5;" rx="12.5" ry="12.5"/><line x1="31" y1="681.219" x2="105.469" y2="681.219" style="stroke:#181818;stroke-width:0.5;"/><text x="41" y="673.143" fill="#000" font-size="14" textLength="54.469">Migrated</text></g><g class="entity" data-qualified-name="FullyOperational" id="ent0009" data-source-line="41"><rect x="7" y="781.609" width="121.938" height="50" fill="#F1F1F1" style="stroke:#181818;stroke-width:0.5;" rx="12.5" ry="12.5"/><line x1="7" y1="809.219" x2="128.938" y2="809.219" style="stroke:#181818;stroke-width:0.5;"/><text x="17" y="801.143" fill="#000" font-size="14" textLength="101.938">FullyOperational</text></g><g class="start_entity" data-qualified-name=".start." id="ent0010" data-source-line="3"><ellipse cx="1375" cy="54.609" rx="10" ry="10" fill="#222" style="stroke:#222;stroke-width:1;"/></g><g class="end_entity" data-qualified-name=".end." id="ent0030" data-source-line="31"><ellipse cx="68" cy="903.609" rx="11" ry="11" fill="none" style="stroke:#222;stroke-width:1;"/><ellipse cx="68" cy="903.609" rx="6" ry="6" fill="#222" style="stroke:#222;stroke-width:1;"/></g><!--link *start* to Scheduled--><g class="link" data-entity-1="ent0010" data-entity-2="ent0001" id="lnk11" data-source-line="3" data-link-type="dependency"><path d="M1375,64.619 C1375,78.499 1375,100.579 1375,120.449" style="stroke:#181818;stroke-width:1;" fill="none" id="*start*-to-Scheduled"/><polygon points="1375,125.449,1379,116.449,1375,120.449,1371,116.449,1375,125.449" fill="#181818" style="stroke:#181818;stroke-width:1;stroke-linejoin:miter;stroke-miterlimit:10;"/></g><!--link Scheduled to Ready--><g class="link" data-entity-1="ent0001" data-entity-2="ent0002" id="lnk12" data-source-line="5" data-link-type="dependency"><path d="M1331.9,154.189 C1248.95,159.779 1070.66,175.059 1018,205.609 C998.69,216.809 986.049,233.012 976.199,249.282" style="stroke:#181818;stroke-width:1;" fill="none" id="Scheduled-to-Ready"/><polygon points="973.61,253.559,981.693,247.932,976.199,249.282,974.849,243.789,973.61,253.559" fill="#181818" style="stroke:#181818;stroke-width:1;stroke-linejoin:miter;stroke-miterlimit:10;"/><text x="1019" y="220.104" fill="#000" font-size="13" textLength="117.057">readiness confirmed</text></g><!--link Scheduled to Postponed--><g class="link" data-entity-1="ent0001" data-entity-2="ent0003" id="lnk13" data-source-line="6" data-link-type="dependency"><path d="M1331.93,162.069 C1287.82,175.299 1221.41,202.739 1190,253.609 C1165.72,292.929 1170.861,344.614 1177.161,376.494" style="stroke:#181818;stroke-width:1;" fill="none" id="Scheduled-to-Postponed"/><polygon points="1178.13,381.399,1180.309,371.795,1177.161,376.494,1172.461,373.346,1178.13,381.399" fill="#181818" style="stroke:#181818;stroke-width:1;stroke-linejoin:miter;stroke-miterlimit:10;"/><text x="1191" y="284.104" fill="#000" font-size="13" textLength="140.213">postponement approved</text></g><!--link Postponed to Scheduled--><g class="link" data-entity-1="ent0003" data-entity-2="ent0001" id="lnk18" data-source-line="13" data-link-type="dependency"><path d="M1227.83,386.969 C1262.29,370.099 1308.85,342.009 1336,303.609 C1363.6,264.569 1371.323,212.606 1373.673,180.656" style="stroke:#181818;stroke-width:1;" fill="none" id="Postponed-to-Scheduled"/><polygon points="1374.04,175.669,1369.391,184.352,1373.673,180.656,1377.369,184.939,1374.04,175.669" fill="#181818" style="stroke:#181818;stroke-width:1;stroke-linejoin:miter;stroke-miterlimit:10;"/><text x="1361" y="284.104" fill="#000" font-size="13" textLength="165.49">new migration date assigned</text></g><!--link Scheduled to Blocked--><g class="link" data-entity-1="ent0001" data-entity-2="ent0004" id="lnk14" data-source-line="7" data-link-type="dependency"><path d="M1418.09,155.149 C1526.14,165.219 1800,198.529 1800,277.609 C1800,277.609 1800,277.609 1800,551.609 C1800,637.359 1704.38,603.579 1621,623.609 C1409.61,674.399 1151.25,678.409 1057.3,678.049" style="stroke:#181818;stroke-width:1;" fill="none" id="Scheduled-to-Blocked"/><polygon points="1052.3,678.029,1061.285,682.064,1057.3,678.049,1061.315,674.064,1052.3,678.029" fill="#181818" style="stroke:#181818;stroke-width:1;stroke-linejoin:miter;stroke-miterlimit:10;"/><text x="1801" y="412.104" fill="#000" font-size="13" textLength="97.557">blocker identified</text></g><!--link Blocked to Scheduled--><g class="link" data-entity-1="ent0004" data-entity-2="ent0001" id="lnk20" data-source-line="16" data-link-type="dependency"><path d="M1052.29,677.499 C1177.78,676.159 1595,663.299 1595,551.609 C1595,277.609 1595,277.609 1595,277.609 C1595,196.949 1487.205,168.011 1423.135,157.611" style="stroke:#181818;stroke-width:1;" fill="none" id="Blocked-to-Scheduled"/><polygon points="1418.2,156.809,1426.443,162.2,1423.135,157.611,1427.725,154.303,1418.2,156.809" fill="#181818" style="stroke:#181818;stroke-width:1;stroke-linejoin:miter;stroke-miterlimit:10;"/><text x="1615.529" y="404.104" fill="#000" font-size="13" textLength="94.656">blocker resolved</text><text x="1596" y="420.456" fill="#000" font-size="13" textLength="133.713">and new date assigned</text></g><!--link Ready to MigrationInProgress--><g class="link" data-entity-1="ent0002" data-entity-2="ent0005" id="lnk15" data-source-line="9" data-link-type="dependency"><path d="M930.87,286.559 C846.92,305.939 613.512,359.795 492.422,387.745" style="stroke:#181818;stroke-width:1;" fill="none" id="Ready-to-MigrationInProgress"/><polygon points="487.55,388.869,497.219,390.743,492.422,387.745,495.42,382.948,487.55,388.869" fill="#181818" style="stroke:#181818;stroke-width:1;stroke-linejoin:miter;stroke-miterlimit:10;"/><text x="722" y="348.104" fill="#000" font-size="13" textLength="96.821">migration started</text></g><!--link Ready to Postponed--><g class="link" data-entity-1="ent0002" data-entity-2="ent0003" id="lnk16" data-source-line="10" data-link-type="dependency"><path d="M974.19,303.759 C983.88,319.439 998.4,339.179 1016,351.609 C1053.42,378.029 1099.524,391.036 1135.484,398.096" style="stroke:#181818;stroke-width:1;" fill="none" id="Ready-to-Postponed"/><polygon points="1140.39,399.059,1132.329,393.4,1135.484,398.096,1130.788,401.251,1140.39,399.059" fill="#181818" style="stroke:#181818;stroke-width:1;stroke-linejoin:miter;stroke-miterlimit:10;"/><text x="1017" y="348.104" fill="#000" font-size="13" textLength="140.213">postponement approved</text></g><!--link Ready to Blocked--><g class="link" data-entity-1="ent0002" data-entity-2="ent0004" id="lnk17" data-source-line="11" data-link-type="dependency"><path d="M939.48,303.619 C906.74,343.199 850.65,424.809 875,495.609 C897.62,561.359 951.133,618.191 985.643,650.171" style="stroke:#181818;stroke-width:1;" fill="none" id="Ready-to-Blocked"/><polygon points="989.31,653.569,985.427,644.518,985.643,650.171,979.99,650.386,989.31,653.569" fill="#181818" style="stroke:#181818;stroke-width:1;stroke-linejoin:miter;stroke-miterlimit:10;"/><text x="876" y="484.104" fill="#000" font-size="13" textLength="97.557">blocker identified</text></g><!--link Blocked to Ready--><g class="link" data-entity-1="ent0004" data-entity-2="ent0002" id="lnk21" data-source-line="17" data-link-type="dependency"><path d="M1013.62,653.579 C1003.63,582.619 975.057,379.481 965.077,308.561" style="stroke:#181818;stroke-width:1;" fill="none" id="Blocked-to-Ready"/><polygon points="964.38,303.609,961.673,313.079,965.077,308.561,969.595,311.964,964.38,303.609" fill="#181818" style="stroke:#181818;stroke-width:1;stroke-linejoin:miter;stroke-miterlimit:10;"/><text x="1015.851" y="476.104" fill="#000" font-size="13" textLength="94.656">blocker resolved</text><text x="992" y="492.456" fill="#000" font-size="13" textLength="142.359">and readiness confirmed</text></g><!--link Postponed to Blocked--><g class="link" data-entity-1="ent0003" data-entity-2="ent0004" id="lnk19" data-source-line="14" data-link-type="dependency"><path d="M1180.82,431.729 C1177.75,449.979 1172.04,475.279 1162,495.609 C1130.69,558.999 1077.95,617.219 1045.48,649.969" style="stroke:#181818;stroke-width:1;" fill="none" id="Postponed-to-Blocked"/><polygon points="1041.96,653.519,1051.137,649.944,1045.48,649.969,1045.456,644.312,1041.96,653.519" fill="#181818" style="stroke:#181818;stroke-width:1;stroke-linejoin:miter;stroke-miterlimit:10;"/><text x="1146" y="556.104" fill="#000" font-size="13" textLength="97.557">blocker identified</text></g><!--link MigrationInProgress to Migrated--><g class="link" data-entity-1="ent0005" data-entity-2="ent0008" id="lnk22" data-source-line="19" data-link-type="dependency"><path d="M342.17,420.219 C244.1,438.849 77.72,476.839 42,525.609 C14.16,563.619 34.569,616.781 51.489,649.061" style="stroke:#181818;stroke-width:1;" fill="none" id="MigrationInProgress-to-Migrated"/><polygon points="53.81,653.489,53.175,643.661,51.489,649.061,46.089,647.375,53.81,653.489" fill="#181818" style="stroke:#181818;stroke-width:1;stroke-linejoin:miter;stroke-miterlimit:10;"/><text x="43" y="556.104" fill="#000" font-size="13" textLength="182.813">automated migration successful</text></g><!--link MigrationInProgress to ManualMigrationRequired--><g class="link" data-entity-1="ent0005" data-entity-2="ent0006" id="lnk23" data-source-line="20" data-link-type="dependency"><path d="M468.8,431.699 C482.53,439.729 496.4,449.729 507,461.609 C523.36,479.939 532.308,501.454 538.228,520.524" style="stroke:#181818;stroke-width:1;" fill="none" id="MigrationInProgress-to-ManualMigrationRequired"/><polygon points="539.71,525.299,540.862,515.518,538.228,520.524,533.222,517.89,539.71,525.299" fill="#181818" style="stroke:#181818;stroke-width:1;stroke-linejoin:miter;stroke-miterlimit:10;"/><text x="529" y="484.104" fill="#000" font-size="13" textLength="153.201">automated migration failed</text></g><!--link MigrationInProgress to DualBoot--><g class="link" data-entity-1="ent0005" data-entity-2="ent0007" id="lnk24" data-source-line="21" data-link-type="dependency"><path d="M342.26,418.609 C317,426.309 291.21,439.389 276,461.609 C263.28,480.199 265.991,501.683 271.871,520.673" style="stroke:#181818;stroke-width:1;" fill="none" id="MigrationInProgress-to-DualBoot"/><polygon points="273.35,525.449,274.509,515.669,271.871,520.673,266.867,518.035,273.35,525.449" fill="#181818" style="stroke:#181818;stroke-width:1;stroke-linejoin:miter;stroke-miterlimit:10;"/><text x="329.035" y="476.104" fill="#000" font-size="13" textLength="117.057">migration completed</text><text x="277" y="492.456" fill="#000" font-size="13" textLength="221.127">with unresolved Windows dependency</text></g><!--link ManualMigrationRequired to Migrated--><g class="link" data-entity-1="ent0006" data-entity-2="ent0008" id="lnk25" data-source-line="23" data-link-type="dependency"><path d="M536.71,575.739 C529.12,592.039 516.72,612.529 499,623.609 C433.53,664.519 202.078,674.401 110.028,676.771" style="stroke:#181818;stroke-width:1;" fill="none" id="ManualMigrationRequired-to-Migrated"/><polygon points="105.03,676.899,114.13,680.666,110.028,676.771,113.924,672.669,105.03,676.899" fill="#181818" style="stroke:#181818;stroke-width:1;stroke-linejoin:miter;stroke-miterlimit:10;"/><text x="519" y="620.104" fill="#000" font-size="13" textLength="164.017">manual migration successful</text></g><!--link ManualMigrationRequired to Blocked--><g class="link" data-entity-1="ent0006" data-entity-2="ent0004" id="lnk26" data-source-line="24" data-link-type="dependency"><path d="M623.62,575.619 C649.76,584.319 678.91,594.709 705,605.609 C721.51,612.499 724.07,617.839 741,623.609 C824.88,652.189 923.596,666.791 976.826,673.211" style="stroke:#181818;stroke-width:1;" fill="none" id="ManualMigrationRequired-to-Blocked"/><polygon points="981.79,673.809,973.334,668.76,976.826,673.211,972.376,676.703,981.79,673.809" fill="#181818" style="stroke:#181818;stroke-width:1;stroke-linejoin:miter;stroke-miterlimit:10;"/><text x="742" y="620.104" fill="#000" font-size="13" textLength="192.95">manual migration cannot proceed</text></g><!--link DualBoot to Migrated--><g class="link" data-entity-1="ent0007" data-entity-2="ent0008" id="lnk27" data-source-line="26" data-link-type="dependency"><path d="M243.61,563.909 C230.44,567.849 215.64,572.099 202,575.609 C141.63,591.139 104.08,557.049 65,605.609 C54.41,618.769 54.642,633.21 58.352,648.52" style="stroke:#181818;stroke-width:1;" fill="none" id="DualBoot-to-Migrated"/><polygon points="59.53,653.379,61.298,643.69,58.352,648.52,53.523,645.575,59.53,653.379" fill="#181818" style="stroke:#181818;stroke-width:1;stroke-linejoin:miter;stroke-miterlimit:10;"/><text x="66" y="620.104" fill="#000" font-size="13" textLength="181.378">Windows dependency removed</text></g><!--link DualBoot to Blocked--><g class="link" data-entity-1="ent0007" data-entity-2="ent0004" id="lnk28" data-source-line="27" data-link-type="dependency"><path d="M275.83,575.739 C272.8,591.399 272.26,611.139 284,623.609 C332.29,674.869 837.33,677.884 976.88,677.744" style="stroke:#181818;stroke-width:1;" fill="none" id="DualBoot-to-Blocked"/><polygon points="981.88,677.739,972.876,673.748,976.88,677.744,972.884,681.748,981.88,677.739" fill="#181818" style="stroke:#181818;stroke-width:1;stroke-linejoin:miter;stroke-miterlimit:10;"/><text x="285" y="620.104" fill="#000" font-size="13" textLength="205.258">new blocking dependency identified</text></g><!--link Migrated to FullyOperational--><g class="link" data-entity-1="ent0008" data-entity-2="ent0009" id="lnk29" data-source-line="29" data-link-type="dependency"><path d="M68,703.899 C68,726.219 68,754.099 68,776.389" style="stroke:#181818;stroke-width:1;" fill="none" id="Migrated-to-FullyOperational"/><polygon points="68,781.389,72,772.389,68,776.389,64,772.389,68,781.389" fill="#181818" style="stroke:#181818;stroke-width:1;stroke-linejoin:miter;stroke-miterlimit:10;"/><text x="69" y="748.104" fill="#000" font-size="13" textLength="186.456">operational validation completed</text></g><!--link FullyOperational to *end*--><g class="link" data-entity-1="ent0009" data-entity-2="ent0030" id="lnk31" data-source-line="31" data-link-type="dependency"><path d="M68,832.069 C68,851.649 68,873.099 68,887.409" style="stroke:#181818;stroke-width:1;" fill="none" id="FullyOperational-to-*end*"/><polygon points="68,892.409,72,883.409,68,887.409,64,883.409,68,892.409" fill="#181818" style="stroke:#181818;stroke-width:1;stroke-linejoin:miter;stroke-miterlimit:10;"/></g><?plantuml-src XLGzRyCW4Dtv5SoLyWSyT8YgIXsgHicGeUr00Jie-A204-NVzo0s_audt-dUktltOO8AMjAZSMUh6PVqNLME1MM07W8Bw3D-KY09-NpwfflDCptmanIDbeAGRAR0NZ9nemLr-4M6zvGRA9Mh4Jf6xemFrW1w1RMjNKi8b5dhp6M6tsh3pmdzaon7bK2uAbLKSQyRSLdx6-oSgLpKKD0wT-G3Sm4fFUD_9JtsiOe-qsX8Y0Pv7MWGSQZCUrKXTi9wNA6BJlDtM6pNQ9Jy1Gn4gZgkDUHtkrhcBcsGB0st7tfImffWwcGFPjvmZj2oqUiP63HCv-XU_ZRAhIOicOh7jvRi1LDjZGcZnNDJMor3xE-gmeasq3LCZmg4kNegf9M0q-OtR7L5qAJTEi5MUdsGeb_pB0Dd0AWTRu_BEFJSpQJqN3KkhKu7EwBqfU8zf6qhg8QquONb0f7wscXz-x3ohWnL5jGCl0lJIaocIyYC53FXoq68Jwz9_tZS_NI7hPt_XTPljRVUmhwxoFAessWtZb6Q79tg9Ny0?></g></svg>